<svg width="256" height="256" viewBox="0 0 256 256" fill="none" xmlns="http://www.w3.org/2000/svg">
  <path d="M128 0C57.31 0 0 57.31 0 128s57.31 128 128 128 128-57.31 128-128S198.69 0 128 0zm0 230.4c-56.55 0-102.4-45.85-102.4-102.4S71.45 25.6 128 25.6s102.4 45.85 102.4 102.4-45.85 102.4-102.4 102.4z" fill="#EA4B71"/>
  <path d="M128 51.2c-42.41 0-76.8 34.39-76.8 76.8s34.39 76.8 76.8 76.8 76.8-34.39 76.8-76.8-34.39-76.8-76.8-76.8zm0 128c-28.27 0-51.2-22.93-51.2-51.2s22.93-51.2 51.2-51.2 51.2 22.93 51.2 51.2-22.93 51.2-51.2 51.2z" fill="#EA4B71"/>
  <circle cx="128" cy="128" r="25.6" fill="#EA4B71"/>
</svg>
