<svg id="Layer_1" enable-background="new 0 0 512 512" height="512" viewBox="0 0 512 512" width="512" xmlns="http://www.w3.org/2000/svg"><g><g><path d="m449.49 311.061c-14.681 24.49-26.541 43.44-26.541 52.21h-333.936c0-31.32-151.587-192.92-41.402-271.88 10.55-7.56 26.691-11.74 42.782-11.74 16.761 0 33.472 4.54 43.722 14.53 6.42-83.49 104.165-86.59 120.806-86.67.32-.01.62-.01.88-.01 14.131 0 115.276 1.56 121.716 86.68h.33c20.081-19.57 64.943-18.24 86.504-2.79 79.364 56.87 22.931 156.61-14.861 219.67z" fill="#f4f1e1"/><path d="m449.49 311.061c37.442-111.22 13.991-161.98 13.991-161.98-28.411-59.57-114.796-30.24-114.796-30.24-6.66-70.28-77.144-104.26-93.764-111.33.32-.01.62-.01.88-.01 14.131 0 115.276 1.56 121.716 86.68h.33c20.081-19.57 64.943-18.24 86.504-2.79 79.364 56.87 22.931 156.61-14.861 219.67z" fill="#f4e5cb"/><path d="m426.519 490.51h-.27s-10.621 3.19-35.222 6.52c-26.891 3.65-70.503 7.47-135.216 7.47-123.896 0-170.438-13.99-170.438-13.99s-10.221-25.93-9.431-123.95c0 0 55.983-17.54 179.879-17.54 66.763 0 113.875 5.09 143.137 9.79 25.031 4.02 36.992 7.75 36.992 7.75.79 98.021-9.431 123.95-9.431 123.95z" fill="#fab684"/><path d="m426.519 490.51h-.27s-10.621 3.19-35.222 6.52c8.31-62.68 8.16-122.01 7.93-138.22 25.031 4.02 36.992 7.75 36.992 7.75.791 98.021-9.43 123.95-9.43 123.95z" fill="#f79e60"/></g><g><path d="m511.538 157.758c-2.659-29.627-17.064-54.006-42.816-72.459-20.742-14.865-60.197-18.179-85.408-4.301-2.697-13.777-8.08-26.014-16.155-36.633-31.304-41.166-93.147-44.365-111.355-44.365-13.295 0-47.469 1.661-77.593 17.043-3.689 1.884-5.153 6.401-3.268 10.091 1.883 3.689 6.402 5.151 10.091 3.269 27.986-14.293 61.244-15.403 70.77-15.403 8.323 0 25.034.689 43.452 5.304 25.216 6.318 44.045 17.469 55.963 33.142 16.616 21.85 19.548 52.734 8.713 91.796-1.107 3.992 1.232 8.125 5.224 9.232.67.186 1.345.274 2.008.274 3.286 0 6.303-2.177 7.224-5.497 5.209-18.781 7.482-35.99 6.846-51.56 16.174-12.799 53.549-15.394 74.75-.199 22.355 16.019 34.331 36.17 36.613 61.606 1.902 21.199-2.924 45.519-14.756 74.35-1.572 3.832.259 8.214 4.091 9.786.933.383 1.897.563 2.845.563 2.952 0 5.751-1.755 6.942-4.654 12.767-31.112 17.941-57.733 15.819-81.385z"/><path d="m477.189 261.737c-3.673-1.913-8.204-.489-10.118 3.186-9.112 17.487-18.913 33.798-27.562 48.188-11.592 19.291-19.114 32.055-22.305 41.306-26.602-5.296-79.1-12.893-161.387-12.893-29.423 0-57.519.993-83.506 2.951-4.131.311-7.227 3.912-6.916 8.042.312 4.129 3.913 7.231 8.043 6.915 25.614-1.93 53.33-2.908 82.379-2.908 63.202 0 108.211 4.677 134.84 8.601 18.813 2.771 31.345 5.567 37.824 7.188.231 64.128-4.534 99.098-7.86 111.897-4.808 1.145-14.739 3.241-30.619 5.395-4.105.556-6.981 4.335-6.424 8.439.51 3.763 3.728 6.493 7.422 6.493.336 0 .676-.022 1.018-.069 21.262-2.882 32.404-5.684 35.494-6.527 2.671-.355 4.979-2.13 5.986-4.686.439-1.113 10.739-28.406 9.951-126.755-.026-3.26-2.155-6.129-5.268-7.1-.409-.127-2.474-.757-6.253-1.708 3.376-8.462 12.019-22.845 20.439-36.855 8.758-14.574 18.685-31.093 28.007-48.983 1.915-3.673.488-8.203-3.185-10.117z"/><path d="m352.624 493.544c-28.683 2.293-61.257 3.456-96.816 3.456-101.841 0-151.243-9.624-164.516-12.727-3.343-12.832-8.113-47.811-7.882-111.965 7.942-1.991 24.992-5.752 51.636-9.079 4.11-.514 7.026-4.262 6.513-8.372-.514-4.11-4.261-7.024-8.373-6.513-16.211 2.024-28.958 4.195-38.428 6.074-3.191-9.251-10.712-22.015-22.305-41.305-18.27-30.401-43.292-72.037-53.161-112.176-11.257-45.782-.565-79.619 32.686-103.447 21.065-15.094 58.09-12.632 74.431-.051-.686 15.634 1.574 32.924 6.812 51.811.921 3.321 3.937 5.498 7.223 5.498.664 0 1.338-.089 2.009-.274 3.991-1.107 6.33-5.24 5.223-9.231-11.057-39.869-7.727-71.21 9.899-93.154 2.594-3.229 2.079-7.949-1.15-10.544-3.23-2.595-7.952-2.078-10.545 1.151-8.807 10.964-14.639 23.711-17.511 38.153-25.222-13.702-64.463-10.358-85.13 4.45-38.264 27.42-51.223 67.531-38.514 119.22 10.41 42.34 36.107 85.1 54.871 116.321 8.416 14.003 17.055 28.379 20.434 36.842-3.993.999-6.079 1.643-6.329 1.721-3.108.974-5.232 3.841-5.258 7.097-.789 98.349 9.512 125.642 9.95 126.755.842 2.138 2.618 3.771 4.819 4.434 1.943.583 49.025 14.311 172.596 14.311 35.957 0 68.933-1.179 98.012-3.503 4.129-.33 7.209-3.945 6.879-8.074-.331-4.128-3.942-7.2-8.075-6.879z"/><path d="m360.567 323.985c3.243 0 6.234-2.12 7.194-5.39 13.552-46.164 33.976-77.684 34.303-78.182 2.275-3.462 1.314-8.112-2.148-10.387-3.459-2.275-8.111-1.314-10.388 2.146-.887 1.351-21.902 33.625-36.16 82.197-1.167 3.975 1.109 8.142 5.084 9.309.705.209 1.416.307 2.115.307z"/><path d="m289.553 318.984c3.513 0 6.65-2.479 7.352-6.057 8.684-44.238 26.529-84.155 26.707-84.553 1.7-3.776.019-8.217-3.758-9.918-3.775-1.704-8.216-.021-9.919 3.755-.76 1.687-18.723 41.832-27.75 87.827-.798 4.064 1.851 8.006 5.915 8.804.489.096.975.142 1.453.142z"/><path d="m122.768 232.174c-2.275-3.459-6.922-4.419-10.382-2.147-3.462 2.272-4.426 6.921-2.155 10.384.206.313 20.713 31.883 34.305 78.186.96 3.27 3.95 5.39 7.193 5.39.699 0 1.411-.099 2.116-.306 3.975-1.167 6.251-5.334 5.084-9.309-14.259-48.573-35.274-80.848-36.161-82.198z"/><path d="m222.742 318.984c.479 0 .965-.046 1.453-.142 4.065-.798 6.713-4.739 5.915-8.804-9.028-45.995-26.991-86.141-27.751-87.827-1.701-3.775-6.143-5.458-9.919-3.755-3.776 1.701-5.458 6.142-3.758 9.918.179.397 18.024 40.314 26.707 84.553.703 3.578 3.84 6.057 7.353 6.057z"/><path d="m197.019 435.142c.619-.031 62.547-3.073 117.526-.002.144.008.284.012.426.012 3.95 0 7.259-3.089 7.482-7.082.231-4.135-2.935-7.675-7.071-7.906-55.766-3.117-118.489-.034-119.116-.002-4.137.207-7.322 3.729-7.115 7.866.209 4.136 3.722 7.353 7.868 7.114z"/></g></g></svg>