<svg id="Layer_1" enable-background="new 0 0 512 512" height="512" viewBox="0 0 512 512" width="512" xmlns="http://www.w3.org/2000/svg"><g><g><path d="m246.923 463.402c-55.047 55.034-144.439 54.794-199.182-.714-3.316-3.359-6.427-6.852-9.327-10.458-44.518-55.197-40.884-136.868 10.529-187.758 27.619-27.337 63.773-40.864 99.828-40.588 8.061.071 15.238-4.872 18.462-12.254 4.907-11.257 11.971-21.8 21.178-31.007 31.593-31.594 78.919-37.88 116.784-18.88l41.98 42.052 2.963 2.963c19.155 38.389 12.318 86.606-20.067 117.917-8.945 8.662-19.113 15.337-29.931 20.032-7.403 3.217-12.169 10.501-12.12 18.569.232 36.211-13.457 72.499-41.097 100.126z" fill="#fab684"/><path d="m246.923 463.402c-55.047 55.034-144.439 54.794-199.182-.714-3.316-3.359-6.427-6.852-9.327-10.458 55.111 44.519 136.067 41.175 187.296-10.041 27.64-27.627 41.33-63.915 41.096-100.126-.049-8.068 4.716-15.351 12.12-18.569 10.819-4.695 20.987-11.37 29.931-20.032 25.01-24.176 41.103-64.764 38.317-99.667l2.963 2.963c19.155 38.389 12.318 86.606-20.067 117.917-8.945 8.662-19.113 15.337-29.931 20.032-7.403 3.217-12.169 10.501-12.12 18.569.233 36.211-13.456 72.499-41.096 100.126z" fill="#f79e60"/><path d="m438.719 117.72c-33.639 34.88-86.559 88.39-150.218 147.95-7.87-4.68-14.79-10.31-20.63-15.91-13.84-13.25-21.64-26.35-21.64-26.35 59.59-63.66 113.099-116.56 147.999-150.18l26.43 26.43z" fill="#f4f1e1"/><path d="m438.719 117.72c-33.639 34.88-86.559 88.39-150.218 147.95-7.87-4.68-14.79-10.31-20.63-15.91 58.369-55.03 120.098-116.38 152.788-150.1z" fill="#f4e5cb"/><ellipse cx="198.162" cy="313.724" fill="#8389aa" rx="46.712" ry="46.701" transform="matrix(1 -.001 .001 1 -.427 .27)"/><path d="m446.331 124.691c-6.597-5.904-13.053-11.95-19.127-17.826-22.62-21.871-39.958-41.246-39.958-41.246 27.789-37.76 57.826-57.813 57.826-57.813s19.396 17.359 41.301 39.987c5.862 6.06 11.893 12.502 17.791 19.078 0 0-20.074 30.03-57.833 57.82z" fill="#fab684"/><path d="m446.331 124.691c-6.597-5.904-13.053-11.95-19.127-17.826 27.442-24.6 48.167-46.754 59.17-59.072 5.862 6.06 11.893 12.502 17.791 19.078-.001 0-20.075 30.03-57.834 57.82z" fill="#f79e60"/></g><g><path d="m346.035 305.306c-3.355-2.431-8.043-1.681-10.473 1.673-3.172 4.38-6.765 8.519-10.678 12.303-8.111 7.845-17.433 14.085-27.708 18.545-10.172 4.417-16.698 14.425-16.626 25.497.232 35.807-13.581 69.464-38.893 94.774-25.101 25.098-58.434 38.902-93.915 38.901-.159 0-.322 0-.481-.001-35.654-.125-69.083-14.181-94.128-39.578-51.307-52.029-50.791-136.195 1.149-187.62 2.943-2.914 2.967-7.663.054-10.606s-7.661-2.968-10.605-.054c-57.806 57.233-58.379 150.906-1.276 208.813 27.872 28.263 65.074 43.906 104.754 44.045.179 0 .356.001.536.001 39.483 0 76.584-15.363 104.517-43.293 28.172-28.168 43.544-65.628 43.287-105.479-.033-5.053 2.95-9.622 7.6-11.64 11.932-5.18 22.753-12.421 32.162-21.522 4.541-4.391 8.712-9.198 12.398-14.285 2.429-3.354 1.68-8.044-1.674-10.474z"/><path d="m198.201 352.925c-4.141 0-7.499 3.358-7.499 7.5s3.357 7.5 7.499 7.5c14.478 0 28.09-5.638 38.328-15.874 10.238-10.237 15.877-23.849 15.877-38.327 0-14.479-5.639-28.09-15.877-38.327-21.135-21.133-55.522-21.133-76.657 0-20.568 20.566-21.303 53.469-1.673 74.905 2.797 3.055 7.541 3.263 10.595.465 3.054-2.797 3.263-7.542.465-10.596-14.193-15.5-13.659-39.292 1.217-54.167 15.287-15.285 40.162-15.286 55.449 0 7.405 7.404 11.483 17.248 11.483 27.719 0 10.47-4.078 20.314-11.483 27.718-7.405 7.406-17.251 11.484-27.724 11.484z"/><path d="m98.313 345.471c-2.928 2.929-2.927 7.678.001 10.607l57.53 57.523c1.464 1.464 3.383 2.196 5.302 2.196s3.839-.732 5.303-2.197c2.928-2.929 2.927-7.678-.001-10.606l-57.53-57.524c-2.927-2.928-7.675-2.928-10.605.001z"/><path d="m77.12 387.854c-2.928 2.929-2.927 7.678.001 10.607l36.336 36.333c1.464 1.464 3.383 2.196 5.302 2.196s3.839-.732 5.303-2.197c2.928-2.929 2.927-7.678-.001-10.607l-36.336-36.333c-2.928-2.928-7.675-2.928-10.605.001z"/><path d="m509.804 93.91-9.589-9.591c6.415-7.703 9.839-12.777 10.177-13.282 1.901-2.846 1.635-6.619-.649-9.169-6.064-6.773-12.767-13.934-19.923-21.284-2.89-2.967-7.638-3.031-10.604-.14-2.967 2.89-3.029 7.639-.14 10.606 5.445 5.591 10.617 11.066 15.431 16.333-6.667 8.752-22.956 28.435-47.74 47.587-21.784-19.916-41.48-40.816-49.773-49.807 19.138-24.755 38.801-41.028 47.556-47.697 2.209 2.034 5.145 4.765 8.602 8.04 3.007 2.849 7.753 2.719 10.601-.287 2.848-3.007 2.72-7.754-.287-10.603-8.023-7.601-13.168-12.211-13.383-12.403-2.549-2.282-6.319-2.548-9.165-.648-.505.337-5.574 3.759-13.273 10.167l-9.531-9.533c-2.929-2.929-7.677-2.928-10.605 0-2.928 2.929-2.929 7.678 0 10.607l8.87 8.872c-4.705 4.391-9.84 9.489-15.179 15.282l-8.982-8.984c-2.929-2.928-7.677-2.929-10.605 0s-2.929 7.678 0 10.607l9.692 9.694c-3.355 4.045-6.734 8.345-10.085 12.899-2.105 2.859-1.916 6.803.453 9.449.044.049.771.86 2.086 2.299-21.282 20.594-48.879 47.784-80.173 79.768-40.827-17.986-88.591-9.212-120.435 22.629-9.669 9.668-17.321 20.875-22.743 33.311-2.058 4.721-6.54 7.758-11.436 7.758-.031 0-.062 0-.092 0-26.125-.194-51.83 6.494-74.378 19.362-3.597 2.053-4.849 6.634-2.796 10.231 1.384 2.425 3.915 3.784 6.52 3.784 1.26 0 2.537-.318 3.71-.987 20.251-11.559 43.358-17.586 66.828-17.39 10.956.131 20.915-6.495 25.392-16.762 4.669-10.708 11.263-20.363 19.6-28.699 26.087-26.084 64.567-34.208 98.527-21.639-16.397 16.888-33.676 34.968-51.489 54.001-2.282 2.438-2.677 6.093-.968 8.962.684 1.148 17.062 28.31 44.865 44.86 1.191.708 2.516 1.055 3.833 1.055 1.857 0 3.699-.689 5.125-2.023 19.014-17.791 37.076-35.048 53.949-51.427 6.831 18.65 7.576 39.056 1.986 58.472-1.146 3.98 1.151 8.136 5.131 9.282.693.2 1.391.295 2.078.295 3.257 0 6.256-2.14 7.202-5.427 7.098-24.654 5.376-50.696-4.786-73.938 32.006-31.308 59.213-58.916 79.815-80.202.768.695 1.538 1.388 2.31 2.079 1.417 1.268 3.206 1.911 5.002 1.911 1.555 0 3.116-.482 4.443-1.459 4.55-3.348 8.847-6.724 12.889-10.075l9.762 9.764c1.465 1.464 3.384 2.197 5.303 2.197s3.838-.732 5.302-2.196c2.928-2.929 2.929-7.678 0-10.607l-9.05-9.052c5.794-5.338 10.892-10.472 15.285-15.177l8.93 8.932c1.465 1.464 3.384 2.197 5.303 2.197s3.838-.732 5.302-2.196c2.927-2.93 2.927-7.679-.001-10.608zm-222.164 162.305c-15.575-10.588-26.749-24.786-31.844-32.004 54.934-58.521 104.475-107.688 138.186-140.315 8.469 8.937 20.586 21.376 34.033 34.108-32.642 33.719-81.825 83.264-140.375 138.211z"/></g></g></svg>